<svg width="17" height="16" viewBox="0 0 17 16" fill="#D65A31" xmlns="http://www.w3.org/2000/svg">
<path d="M14.6644 1.25H13.917V0H12.6713V1.25H4.44985V0H3.20417V1.25H2.45677C1.42647 1.25 0.588257 2.09113 0.588257 3.125V14.125C0.588257 15.1589 1.42647 16 2.45677 16H14.6644C15.6947 16 16.5329 15.1589 16.5329 14.125V3.125C16.5329 2.09113 15.6947 1.25 14.6644 1.25ZM15.2872 14.125C15.2872 14.4696 15.0078 14.75 14.6644 14.75H2.45677C2.11334 14.75 1.83393 14.4696 1.83393 14.125V5.875H15.2872V14.125ZM15.2872 4.625H1.83393V3.125C1.83393 2.78038 2.11334 2.5 2.45677 2.5H3.20417V3.75H4.44985V2.5H12.6713V3.75H13.917V2.5H14.6644C15.0078 2.5 15.2872 2.78038 15.2872 3.125V4.625Z" />
<path d="M4.20071 7.1875H2.95504V8.4375H4.20071V7.1875Z" />
<path d="M6.69206 7.1875H5.44639V8.4375H6.69206V7.1875Z" />
<path d="M9.18341 7.1875H7.93774V8.4375H9.18341V7.1875Z" />
<path d="M11.6748 7.1875H10.4291V8.4375H11.6748V7.1875Z" />
<path d="M14.1661 7.1875H12.9204V8.4375H14.1661V7.1875Z" />
<path d="M4.20071 9.6875H2.95504V10.9375H4.20071V9.6875Z" />
<path d="M6.69206 9.6875H5.44639V10.9375H6.69206V9.6875Z" />
<path d="M9.18341 9.6875H7.93774V10.9375H9.18341V9.6875Z" />
<path d="M11.6748 9.6875H10.4291V10.9375H11.6748V9.6875Z" />
<path d="M4.20071 12.1875H2.95504V13.4375H4.20071V12.1875Z" />
<path d="M6.69206 12.1875H5.44639V13.4375H6.69206V12.1875Z" />
<path d="M9.18341 12.1875H7.93774V13.4375H9.18341V12.1875Z" />
<path d="M11.6748 12.1875H10.4291V13.4375H11.6748V12.1875Z" />
<path d="M14.1661 9.6875H12.9204V10.9375H14.1661V9.6875Z" />
</svg>
