<svg width="118" height="24" viewBox="0 0 118 24" fill="none" xmlns="http://www.w3.org/2000/svg">
<path d="M23.3531 10.4388C23.3524 10.4383 23.3518 10.4376 23.3513 10.437L13.5612 0.647278C13.1439 0.229797 12.5891 0 11.9989 0C11.4088 0 10.854 0.229797 10.4365 0.647278L0.651514 10.4321C0.648218 10.4354 0.644739 10.4388 0.641626 10.4421C-0.215307 11.304 -0.213843 12.7024 0.645838 13.5621C1.0386 13.955 1.55715 14.1824 2.11178 14.2064C2.13449 14.2086 2.15719 14.2097 2.18008 14.2097H2.57009V21.4142C2.57009 22.84 3.73025 24 5.15609 24H8.98629C9.37466 24 9.68942 23.6851 9.68942 23.2969V17.6484C9.68942 16.9979 10.2188 16.4687 10.8693 16.4687H13.1285C13.7791 16.4687 14.3083 16.9979 14.3083 17.6484V23.2969C14.3083 23.6851 14.623 24 15.0114 24H18.8416C20.2676 24 21.4276 22.84 21.4276 21.4142V14.2097H21.7894C22.3794 14.2097 22.9342 13.9799 23.3518 13.5623C24.2124 12.7013 24.2128 11.3004 23.3531 10.4388ZM22.3574 12.568C22.2056 12.7198 22.0038 12.8035 21.7894 12.8035H20.7245C20.3361 12.8035 20.0213 13.1182 20.0213 13.5066V21.4142C20.0213 22.0646 19.4922 22.5938 18.8416 22.5938H15.7145V17.6484C15.7145 16.2226 14.5545 15.0624 13.1285 15.0624H10.8693C9.44332 15.0624 8.28317 16.2226 8.28317 17.6484V22.5938H5.15609C4.5057 22.5938 3.97634 22.0646 3.97634 21.4142V13.5066C3.97634 13.1182 3.66159 12.8035 3.27322 12.8035H2.22659C2.2156 12.8027 2.2048 12.8022 2.19363 12.802C1.98416 12.7983 1.78768 12.7152 1.64047 12.5678C1.32736 12.2547 1.32736 11.7451 1.64047 11.4318C1.64065 11.4318 1.64065 11.4316 1.64083 11.4315L11.4311 1.64154C11.5827 1.48975 11.7843 1.40625 11.9989 1.40625C12.2133 1.40625 12.4149 1.48975 12.5667 1.64154L22.3543 11.4289C22.3557 11.4304 22.3574 11.4318 22.3589 11.4333C22.6703 11.7469 22.6698 12.2554 22.3574 12.568Z" fill="#EEEEEE"/>
<path d="M36.9897 11.8203C36.9897 10.9505 37.1538 10.1406 37.4819 9.39062C37.8101 8.63542 38.284 7.98177 38.9038 7.42969C39.5288 6.8724 40.2892 6.4349 41.1851 6.11719C42.0861 5.79948 43.1043 5.64062 44.2397 5.64062C45.2345 5.64062 46.146 5.74219 46.9741 5.94531C47.8075 6.14323 48.5809 6.44792 49.2944 6.85938L48.1538 8.73438C47.9403 8.59375 47.6929 8.46875 47.4116 8.35938C47.1356 8.25 46.8387 8.15885 46.521 8.08594C46.2085 8.00781 45.883 7.94792 45.5444 7.90625C45.2111 7.86458 44.8804 7.84375 44.5522 7.84375C43.7606 7.84375 43.0549 7.94271 42.4351 8.14062C41.8153 8.33333 41.2918 8.60677 40.8647 8.96094C40.4429 9.3099 40.12 9.72917 39.896 10.2188C39.6772 10.7031 39.5679 11.237 39.5679 11.8203C39.5679 12.4245 39.6825 12.9792 39.9116 13.4844C40.1408 13.9896 40.4715 14.4271 40.9038 14.7969C41.3413 15.1615 41.8726 15.4479 42.4976 15.6562C43.1278 15.8594 43.8387 15.9609 44.6304 15.9609C44.9897 15.9609 45.3465 15.9349 45.7007 15.8828C46.0549 15.8307 46.396 15.7604 46.7241 15.6719C47.0575 15.5781 47.3778 15.4688 47.6851 15.3438C47.9924 15.2135 48.2788 15.0729 48.5444 14.9219L49.6851 16.7969C49.0184 17.224 48.2476 17.5599 47.3726 17.8047C46.4976 18.0443 45.5679 18.1641 44.5835 18.1641C43.3283 18.1641 42.2267 18.0026 41.2788 17.6797C40.3309 17.3516 39.5392 16.9036 38.9038 16.3359C38.2684 15.763 37.7892 15.0911 37.4663 14.3203C37.1486 13.5443 36.9897 12.7109 36.9897 11.8203ZM52.1069 5.78906H54.5991V18H52.1069V5.78906ZM57.7476 5.78906H60.2241L67.8335 9.77344V5.78906H70.3101V18H67.8335V12.3984L60.2241 8.4375V18H57.7476V5.78906ZM73.7632 5.78906H84.1616V7.96094H76.2397V10.3984H83.2554V12.4375H76.2397V15.8359H84.3257V18H73.7632V5.78906ZM87.0757 5.78906H89.5522V15.8281H96.6538V18H87.0757V5.78906ZM98.7476 5.78906H101.24V18H98.7476V5.78906ZM104.404 5.78906H110.927C111.724 5.78906 112.417 5.875 113.005 6.04688C113.599 6.21354 114.091 6.44531 114.482 6.74219C114.873 7.03906 115.162 7.39323 115.349 7.80469C115.542 8.21094 115.638 8.65104 115.638 9.125C115.638 9.90104 115.393 10.5807 114.904 11.1641C115.466 11.4974 115.886 11.9297 116.162 12.4609C116.438 12.9922 116.576 13.5964 116.576 14.2734C116.576 14.8411 116.479 15.3542 116.287 15.8125C116.099 16.2708 115.81 16.6641 115.419 16.9922C115.034 17.3151 114.544 17.5651 113.951 17.7422C113.362 17.9141 112.667 18 111.865 18H104.404V5.78906ZM111.88 10.4766C112.094 10.4766 112.302 10.4844 112.505 10.5C112.854 10.1667 113.029 9.78646 113.029 9.35938C113.029 8.91667 112.854 8.57552 112.505 8.33594C112.162 8.09115 111.656 7.96875 110.99 7.96875H106.88V10.4766H111.88ZM111.927 15.8438C112.594 15.8438 113.099 15.7005 113.443 15.4141C113.792 15.1276 113.966 14.724 113.966 14.2031C113.966 13.6823 113.792 13.276 113.443 12.9844C113.099 12.6927 112.594 12.5469 111.927 12.5469H106.88V15.8438H111.927Z" fill="#EEEEEE"/>
</svg>
