<svg width="72" height="72" viewBox="0 0 72 72" fill="none" xmlns="http://www.w3.org/2000/svg">
<path fill-rule="evenodd" clip-rule="evenodd" d="M35.0091 8.61659C34.2543 8.44245 33.5012 8.91212 33.3265 9.66688C33.1518 10.4216 33.6226 11.1753 34.3774 11.35C37.8666 12.1564 41.0559 13.9279 43.5998 16.4718C51.0788 23.9508 51.0788 36.1209 43.5998 43.5998C36.1209 51.0793 23.9508 51.0793 16.4718 43.5998C8.99232 36.1209 8.99232 23.9508 16.4718 16.4718C18.6191 14.3245 21.1602 12.7584 24.0249 11.8158C24.7605 11.5741 25.1609 10.7814 24.9192 10.0454C24.677 9.30927 23.8838 8.90882 23.1482 9.15107C19.8622 10.2316 16.9486 12.0273 14.4882 14.4882C5.91504 23.0614 5.91504 37.0108 14.4882 45.584C18.7746 49.8703 24.4051 52.0137 30.0361 52.0137C35.6666 52.0132 41.2971 49.8703 45.584 45.584C54.1566 37.0108 54.1566 23.0614 45.584 14.4882C42.6676 11.5725 39.0114 9.54163 35.0091 8.61659Z" fill="#EEEEEE"/>
<path fill-rule="evenodd" clip-rule="evenodd" d="M70.0895 60.8495L55.3898 46.1498C62.9276 34.3296 61.2769 18.8004 51.2743 8.79731C45.6015 3.12451 38.0589 0 30.0361 0C22.0128 0 14.4701 3.12451 8.79731 8.79731C3.12397 14.4701 0 22.0128 0 30.0361C0 38.0589 3.12397 45.6015 8.79731 51.2743C14.4701 56.9471 22.0122 60.0711 30.035 60.0711C35.7929 60.0711 41.3394 58.4561 46.1498 55.3898L60.8495 70.0895C62.0794 71.32 63.7202 71.9973 65.4698 71.9973C67.2188 71.9973 68.8596 71.32 70.0901 70.0895C72.6367 67.5418 72.6367 63.3972 70.0895 60.8495ZM68.106 68.106C67.4056 68.8058 66.4695 69.1914 65.4698 69.1914C64.4695 69.1914 63.5334 68.8058 62.8331 68.106L47.3215 52.5943C47.0501 52.3224 46.6908 52.1835 46.3294 52.1835C46.0514 52.1835 45.7724 52.2653 45.5301 52.4334C40.9725 55.5947 35.6139 57.2657 30.035 57.2657C22.7615 57.2657 15.9236 54.4335 10.7809 49.2908C0.163696 38.6736 0.163696 21.3981 10.7809 10.7809C15.9241 5.63764 22.762 2.80536 30.0361 2.80536C37.3096 2.80536 44.1475 5.63764 49.2908 10.7809C58.6116 20.1023 59.9338 34.7163 52.4334 45.5301C52.0467 46.0877 52.1142 46.8414 52.5943 47.3215L68.106 62.8331C69.5595 64.2866 69.5595 66.6519 68.106 68.106Z" fill="#EEEEEE"/>
<path fill-rule="evenodd" clip-rule="evenodd" d="M38.5038 21.5678C37.9562 21.0202 37.0685 21.0202 36.5202 21.5678L30.0361 28.052L23.5514 21.5678C23.0037 21.0202 22.1155 21.0202 21.5678 21.5678C21.0202 22.1155 21.0202 23.0037 21.5678 23.5514L28.052 30.0361L21.5678 36.5202C21.0202 37.0679 21.0202 37.9562 21.5678 38.5038C21.8414 38.7779 22.2006 38.9147 22.5593 38.9147C22.9186 38.9147 23.2773 38.7779 23.5514 38.5038L30.0356 32.0197L36.5197 38.5038C36.7938 38.7779 37.1531 38.9147 37.5118 38.9147C37.871 38.9147 38.2297 38.7779 38.5038 38.5038C39.0515 37.9562 39.0515 37.0679 38.5038 36.5202L32.0191 30.0361L38.5038 23.5514C39.0515 23.0037 39.0515 22.1155 38.5038 21.5678Z" fill="#EEEEEE"/>
<path fill-rule="evenodd" clip-rule="evenodd" d="M29.1061 10.8743C29.8784 10.8743 30.5085 10.2442 30.5085 9.47132C30.5085 8.69898 29.8784 8.06892 29.1061 8.06892C28.3332 8.06892 27.7032 8.69898 27.7032 9.47132C27.7032 10.2442 28.3332 10.8743 29.1061 10.8743Z" fill="#EEEEEE"/>
</svg>
