<svg width="17" height="16" viewBox="0 0 17 16" fill="#D65A31" xmlns="http://www.w3.org/2000/svg">
<path d="M8.80972 0C4.41371 0 0.837402 3.58873 0.837402 8C0.837402 12.4113 4.41371 16 8.80972 16C13.2058 16 16.782 12.4113 16.782 8C16.782 3.58873 13.2058 0 8.80972 0ZM8.80972 14.2514C5.37455 14.2514 2.57999 11.4471 2.57999 8C2.57999 4.55308 5.37455 1.74863 8.80972 1.74863C12.2449 1.74863 15.0395 4.55308 15.0395 8C15.0395 11.4471 12.2449 14.2514 8.80972 14.2514Z" />
<path d="M9.49981 8.0096V4.65662C9.49981 4.28224 9.19747 3.97886 8.82453 3.97886C8.45147 3.97886 8.14911 4.28224 8.14911 4.65662V8.22612C8.14911 8.23678 8.15172 8.24678 8.15224 8.25744C8.14335 8.44173 8.20662 8.62885 8.34688 8.76963L10.8623 11.2936C11.1262 11.5584 11.5538 11.5584 11.8174 11.2936C12.0811 11.0289 12.0813 10.5997 11.8174 10.3352L9.49981 8.0096Z" />
</svg>
