<svg width="81" height="14" viewBox="0 0 81 14" fill="none" xmlns="http://www.w3.org/2000/svg">
<path d="M0.992188 6.82031C0.992188 5.95052 1.15625 5.14062 1.48438 4.39062C1.8125 3.63542 2.28646 2.98177 2.90625 2.42969C3.53125 1.8724 4.29167 1.4349 5.1875 1.11719C6.08854 0.799479 7.10677 0.640625 8.24219 0.640625C9.23698 0.640625 10.1484 0.742188 10.9766 0.945312C11.8099 1.14323 12.5833 1.44792 13.2969 1.85938L12.1562 3.73438C11.9427 3.59375 11.6953 3.46875 11.4141 3.35938C11.138 3.25 10.8411 3.15885 10.5234 3.08594C10.2109 3.00781 9.88542 2.94792 9.54688 2.90625C9.21354 2.86458 8.88281 2.84375 8.55469 2.84375C7.76302 2.84375 7.05729 2.94271 6.4375 3.14062C5.81771 3.33333 5.29427 3.60677 4.86719 3.96094C4.44531 4.3099 4.1224 4.72917 3.89844 5.21875C3.67969 5.70312 3.57031 6.23698 3.57031 6.82031C3.57031 7.42448 3.6849 7.97917 3.91406 8.48438C4.14323 8.98958 4.47396 9.42708 4.90625 9.79688C5.34375 10.1615 5.875 10.4479 6.5 10.6562C7.13021 10.8594 7.84115 10.9609 8.63281 10.9609C8.99219 10.9609 9.34896 10.9349 9.70312 10.8828C10.0573 10.8307 10.3984 10.7604 10.7266 10.6719C11.0599 10.5781 11.3802 10.4688 11.6875 10.3438C11.9948 10.2135 12.2812 10.0729 12.5469 9.92188L13.6875 11.7969C13.0208 12.224 12.25 12.5599 11.375 12.8047C10.5 13.0443 9.57031 13.1641 8.58594 13.1641C7.33073 13.1641 6.22917 13.0026 5.28125 12.6797C4.33333 12.3516 3.54167 11.9036 2.90625 11.3359C2.27083 10.763 1.79167 10.0911 1.46875 9.32031C1.15104 8.54427 0.992188 7.71094 0.992188 6.82031ZM16.1094 0.789062H18.6016V13H16.1094V0.789062ZM21.75 0.789062H24.2266L31.8359 4.77344V0.789062H34.3125V13H31.8359V7.39844L24.2266 3.4375V13H21.75V0.789062ZM37.7656 0.789062H48.1641V2.96094H40.2422V5.39844H47.2578V7.4375H40.2422V10.8359H48.3281V13H37.7656V0.789062ZM51.0781 0.789062H53.5547V10.8281H60.6562V13H51.0781V0.789062ZM62.75 0.789062H65.2422V13H62.75V0.789062ZM68.4062 0.789062H74.9297C75.7266 0.789062 76.4193 0.875 77.0078 1.04688C77.6016 1.21354 78.0938 1.44531 78.4844 1.74219C78.875 2.03906 79.1641 2.39323 79.3516 2.80469C79.5443 3.21094 79.6406 3.65104 79.6406 4.125C79.6406 4.90104 79.3958 5.58073 78.9062 6.16406C79.4688 6.4974 79.888 6.92969 80.1641 7.46094C80.4401 7.99219 80.5781 8.59635 80.5781 9.27344C80.5781 9.84115 80.4818 10.3542 80.2891 10.8125C80.1016 11.2708 79.8125 11.6641 79.4219 11.9922C79.0365 12.3151 78.5469 12.5651 77.9531 12.7422C77.3646 12.9141 76.6693 13 75.8672 13H68.4062V0.789062ZM75.8828 5.47656C76.0964 5.47656 76.3047 5.48438 76.5078 5.5C76.8568 5.16667 77.0312 4.78646 77.0312 4.35938C77.0312 3.91667 76.8568 3.57552 76.5078 3.33594C76.1641 3.09115 75.6589 2.96875 74.9922 2.96875H70.8828V5.47656H75.8828ZM75.9297 10.8438C76.5964 10.8438 77.1016 10.7005 77.4453 10.4141C77.7943 10.1276 77.9688 9.72396 77.9688 9.20312C77.9688 8.68229 77.7943 8.27604 77.4453 7.98438C77.1016 7.69271 76.5964 7.54688 75.9297 7.54688H70.8828V10.8438H75.9297Z" fill="#EEEEEE"/>
</svg>
