<svg width="17" height="17" viewBox="0 0 17 17" fill="none" xmlns="http://www.w3.org/2000/svg">
<path d="M7.07244 0.0541992C3.17273 0.0541992 0 3.21826 0 7.10734C0 10.9964 3.17277 14.1605 7.07244 14.1605C10.9721 14.1605 14.1449 10.9964 14.1449 7.10734C14.1449 3.21826 10.9721 0.0541992 7.07244 0.0541992ZM7.07244 13.001C3.81196 13.001 1.15942 10.357 1.15942 7.10731C1.15942 3.85745 3.81196 1.21358 7.07244 1.21358C10.3329 1.21358 12.9855 3.85745 12.9855 7.10731C12.9855 10.357 10.3329 13.001 7.07244 13.001Z" fill="#222831"/>
<path d="M15.8678 15.0635L12.061 11.276C11.834 11.0503 11.467 11.0513 11.2411 11.2782C11.0154 11.5052 11.0164 11.8722 11.2433 12.0981L15.05 15.8855C15.1633 15.998 15.3109 16.0542 15.4589 16.0542C15.6079 16.0542 15.7567 15.9972 15.8699 15.8834C16.0956 15.6563 16.0947 15.2894 15.8678 15.0635Z" fill="#222831"/>
</svg>
